<svg xmlns="http://www.w3.org/2000/svg" xmlns:xlink="http://www.w3.org/1999/xlink" version="1.1" x="0px" y="0px" viewBox="0 0 100 100" enable-background="new 0 0 100 100" xml:space="preserve"><path d="M40.197,26.708c0-1.177,0.959-2.136,2.135-2.136c1.179,0.001,2.136,0.958,2.136,2.136v17.08l-4.271-4.271V26.708z"></path><path d="M47.872,46.448V22.873c0-1.181,0.959-2.139,2.137-2.139c1.177,0.001,2.134,0.958,2.134,2.139l0.01,23.575  c0,0.944,0.765,1.708,1.701,1.708c0.928,0,1.666-0.736,1.693-1.651V26.841c0-1.181,0.959-2.138,2.137-2.138  c1.179,0,2.133,0.957,2.133,2.138v19.606c0,0.943,0.762,1.708,1.705,1.708c0.942,0,1.701-0.764,1.701-1.708V30.546  c0-1.179,0.959-2.136,2.137-2.136c1.18,0,2.133,0.957,2.133,2.136v31.217H67.5c0,1.546-0.22,3.036-0.596,4.464L47.752,47.072  C47.827,46.878,47.872,46.668,47.872,46.448z"></path><path d="M32.522,47.136c0-1.182,0.955-2.134,2.136-2.134c1.178,0,2.133,0.953,2.133,2.134c0,0.062,0,6.123,0,6.123  c0,0.943,0.763,1.705,1.704,1.706c0.941,0,1.702-0.762,1.702-1.706v-3.833l23.375,23.378c-3.209,3.94-8.094,6.46-13.57,6.46  c-9.666,0-17.502-7.832-17.502-17.501l0.022,0.001C32.522,61.764,32.522,47.198,32.522,47.136z"></path><path d="M10,50c0,22.091,17.908,40,40,40s40-17.909,40-40S72.092,10,50,10S10,27.909,10,50z M75.03,77.219L22.783,24.967  C29.55,17.616,39.244,13,50,13c9.883,0,19.175,3.849,26.163,10.837C83.15,30.825,87,40.117,87,50  C87,60.757,82.383,70.453,75.03,77.219z M13,50c0-8.566,2.935-16.456,7.84-22.734l51.893,51.896C66.453,84.066,58.564,87,50,87  C29.598,87,13,70.402,13,50z"></path></svg>